<svg width="28" height="28" viewBox="0 0 28 28" fill="none" xmlns="http://www.w3.org/2000/svg">
<g opacity="0.87">
<path d="M13.0454 11.2517L17.4483 15.6546L9.80438 23.2985C9.22052 23.8824 8.42863 24.2104 7.60292 24.2104C6.77721 24.2104 5.98533 23.8824 5.40147 23.2985C4.8176 22.7147 4.48959 21.9228 4.48959 21.0971C4.48959 20.2714 4.8176 19.4795 5.40147 18.8956L13.0454 11.2517Z" fill="white" stroke="#545454" stroke-width="1.5" stroke-linecap="round" stroke-linejoin="round"/>
<path d="M23.1418 5.78881L22.8132 5.4602C22.4227 5.06968 21.7895 5.06968 21.399 5.46021L14.3322 12.527L16.075 14.2698L23.1418 7.20302C23.5323 6.8125 23.5323 6.17933 23.1418 5.78881Z" fill="white" stroke="#545454" stroke-width="1.5" stroke-linecap="round" stroke-linejoin="round"/>
<path d="M8.3866 18.9802L14.1917 12.2076" stroke="#545454" stroke-width="1.5" stroke-linecap="round" stroke-linejoin="round"/>
<path d="M10.3216 19.9477L16.1267 14.1427" stroke="#545454" stroke-width="1.5" stroke-linecap="round" stroke-linejoin="round"/>
<path d="M12.7083 5.49006C12.1064 4.88925 11.3641 4.44859 10.5489 4.20812C9.73376 3.96765 8.87149 3.935 8.04049 4.11313L11.0674 7.14461L7.14241 11.0755L4.11552 8.04405C3.91703 8.96111 3.97516 9.91524 4.28352 10.8013C4.59188 11.6874 5.13849 12.471 5.86312 13.0658C6.58776 13.6607 7.46228 14.0436 8.39034 14.1724C9.31839 14.3013 10.2639 14.1711 11.1228 13.7961L19.7378 23.2014L19.893 23.3458C20.3679 23.7876 20.9986 24.0223 21.6463 23.9983C22.294 23.9744 22.9057 23.6937 23.3468 23.2181C23.7879 22.7425 24.0222 22.1108 23.9983 21.4622C23.9744 20.8135 23.6942 20.2009 23.2193 19.7591L13.7838 11.1311C14.1898 10.1912 14.3044 9.15075 14.1126 8.14485C13.9208 7.13895 13.4316 6.21401 12.7083 5.49006Z" fill="white" stroke="#545454" stroke-width="1.5" stroke-linecap="round" stroke-linejoin="round"/>
</g>
</svg>
