<svg width="28" height="28" viewBox="0 0 28 28" fill="none" xmlns="http://www.w3.org/2000/svg">
<g opacity="0.87">
<path d="M24.3069 21.0373C25.0001 19.5978 25.0001 17.7319 25.0001 14C25.0001 10.2682 25.0001 8.40228 24.3069 6.96279C23.6188 5.53405 22.466 4.38128 21.0373 3.69323C19.5978 3 17.7319 3 14 3C10.2682 3 8.40228 3 6.96279 3.69323C5.53405 4.38128 4.38128 5.53405 3.69323 6.96279C3 8.40228 3 10.2682 3 14C3 17.7319 3 19.5978 3.69323 21.0373C4.38128 22.466 5.53405 23.6188 6.96279 24.3069C8.40228 25.0001 10.2682 25.0001 14 25.0001C17.7319 25.0001 19.5978 25.0001 21.0373 24.3069C22.466 23.6188 23.6188 22.466 24.3069 21.0373Z" fill="white" stroke="#545454" stroke-width="1.5" stroke-miterlimit="10"/>
<path d="M17.49 10.2001C17.49 12.1301 15.93 14.8301 14 14.8301C12.07 14.8301 10.51 12.1301 10.51 10.2001C10.51 9.27179 10.8787 8.38155 11.5351 7.72517C12.1915 7.06879 13.0817 6.70004 14.01 6.70004C14.9383 6.70004 15.8285 7.06879 16.4849 7.72517C17.1413 8.38155 17.49 9.27179 17.49 10.2001Z" stroke="#545454" stroke-width="1.5" stroke-miterlimit="10"/>
<path d="M22 24C22 24 22.76 16.8301 14 16.8301C5.23992 16.8301 6.00002 24 6.00002 24" stroke="#545454" stroke-width="1.5" stroke-miterlimit="10"/>
</g>
</svg>
