<svg width="28" height="28" viewBox="0 0 28 28" fill="none" xmlns="http://www.w3.org/2000/svg">
<path d="M18.9134 3H13.72C12.0399 3 11.1998 3 10.5581 3.32698C9.99359 3.6146 9.53464 4.07354 9.24702 4.63803C8.92004 5.27976 8.92004 6.11984 8.92004 7.8V17.1817C8.92004 18.8618 8.92004 19.7019 9.24702 20.3436C9.53464 20.9081 9.99359 21.3671 10.5581 21.6547C11.1998 21.9817 12.0399 21.9817 13.72 21.9817H18.9134C20.5935 21.9817 21.4336 21.9817 22.0753 21.6547C22.6398 21.3671 23.0988 20.9081 23.3864 20.3436C23.7134 19.7019 23.7134 18.8618 23.7134 17.1817V7.8C23.7134 6.11984 23.7134 5.27976 23.3864 4.63803C23.0988 4.07354 22.6398 3.6146 22.0753 3.32698C21.4336 3 20.5935 3 18.9134 3Z" fill="white" stroke="#7C4DFF" stroke-width="1.5" stroke-miterlimit="10"/>
<path d="M14.9933 6.62817H9.8C8.11984 6.62817 7.27976 6.62817 6.63803 6.95515C6.07354 7.24277 5.6146 7.70172 5.32698 8.2662C5 8.90794 5 9.74802 5 11.4282V20.8098C5 22.49 5 23.3301 5.32698 23.9718C5.6146 24.5363 6.07354 24.9952 6.63803 25.2829C7.27976 25.6098 8.11984 25.6098 9.8 25.6098H14.9933C16.6735 25.6098 17.5136 25.6098 18.1553 25.2829C18.7198 24.9952 19.1787 24.5363 19.4664 23.9718C19.7933 23.3301 19.7933 22.49 19.7933 20.8098V11.4282C19.7933 9.74802 19.7933 8.90794 19.4664 8.2662C19.1787 7.70172 18.7198 7.24277 18.1553 6.95515C17.5136 6.62817 16.6735 6.62817 14.9933 6.62817Z" fill="white" stroke="#7C4DFF" stroke-width="1.5" stroke-miterlimit="10"/>
<path d="M8.35669 10.8616H16.3567" stroke="#7C4DFF" stroke-width="1.5" stroke-miterlimit="10" stroke-linecap="round"/>
<path d="M8.35669 13.8616H16.3567" stroke="#7C4DFF" stroke-width="1.5" stroke-miterlimit="10" stroke-linecap="round"/>
<path d="M8.35669 16.8616H16.3567" stroke="#7C4DFF" stroke-width="1.5" stroke-miterlimit="10" stroke-linecap="round"/>
<path d="M8.35669 19.8616H13.3567" stroke="#7C4DFF" stroke-width="1.5" stroke-miterlimit="10" stroke-linecap="round"/>
</svg>
